<svg width="133" height="145" viewBox="0 0 133 145" fill="none" xmlns="http://www.w3.org/2000/svg">
<path d="M113.059 98.5145H110.351C67.0713 39.3342 71.4184 45.1878 70.9834 44.689C70.8728 44.5762 70.7469 44.4795 70.6093 44.4019C70.4628 44.3598 70.428 44.3163 70.1728 44.3163C70.1598 44.3163 70.1511 44.3091 70.1395 44.3091C70.1148 44.3105 70.0945 44.3265 70.0699 44.3294C69.906 44.3476 69.7478 44.4005 69.6059 44.4845C69.462 44.5687 69.3398 44.6854 69.2492 44.8253L54.1706 69.3448C42.7606 53.4832 43.7205 54.6954 43.3797 54.5316C43.2318 54.4649 43.0707 54.4327 42.9085 54.4373L42.8911 54.433C42.5387 54.4866 42.3009 54.5548 42.0747 54.8288C42.0559 54.852 42.0254 54.8622 42.008 54.8854L10.6416 98.5145H7.94028C7.65186 98.5145 7.37525 98.629 7.17131 98.833C6.96736 99.0369 6.85278 99.3135 6.85278 99.6019C6.85278 99.8904 6.96736 100.167 7.17131 100.371C7.37525 100.575 7.65186 100.689 7.94028 100.689H113.058C113.346 100.69 113.623 100.575 113.827 100.371C114.031 100.168 114.146 99.8911 114.146 99.6027C114.146 99.3142 114.032 99.0376 113.828 98.8335C113.624 98.6294 113.348 98.5146 113.059 98.5145ZM67.2627 52.2232L60.4854 78.0955L55.5626 71.2501L67.2627 52.2232ZM13.3676 98.4666L40.21 61.1305L29.7715 98.4666H13.3676ZM32.0161 98.5145L35.1974 87.1377H41.8674C42.1558 87.1377 42.4324 87.0232 42.6364 86.8192C42.8403 86.6153 42.9549 86.3387 42.9549 86.0502C42.9549 85.7618 42.8403 85.4852 42.6364 85.2813C42.4324 85.0773 42.1558 84.9627 41.8674 84.9627H35.8049L38.9862 73.586H43.561C43.8494 73.586 44.126 73.4715 44.33 73.2675C44.5339 73.0636 44.6485 72.787 44.6485 72.4985C44.6485 72.2101 44.5339 71.9335 44.33 71.7296C44.126 71.5256 43.8494 71.411 43.561 71.411H39.5938L43.342 58.0072L53.3601 71.9417L53.363 71.949L57.8493 78.1883H50.3383C50.0499 78.1883 49.7733 78.3029 49.5693 78.5069C49.3654 78.7108 49.2508 78.9874 49.2508 79.2758C49.2508 79.5643 49.3654 79.8409 49.5693 80.0448C49.7733 80.2488 50.0499 80.3633 50.3383 80.3633H59.4138L67.5933 91.74H62.1964C61.908 91.74 61.6314 91.8546 61.4274 92.0586C61.2235 92.2625 61.1089 92.5391 61.1089 92.8275C61.1089 93.116 61.2235 93.3926 61.4274 93.5965C61.6314 93.8005 61.908 93.915 62.1964 93.915H69.1564L72.4638 98.5159L32.0161 98.5145ZM75.142 98.5145L66.9625 87.1377H75.7437C76.0322 87.1377 76.3088 87.0232 76.5127 86.8192C76.7167 86.6153 76.8312 86.3387 76.8312 86.0502C76.8312 85.7618 76.7167 85.4852 76.5127 85.2813C76.3088 85.0773 76.0322 84.9627 75.7437 84.9627H65.398L62.1239 80.4097L63.9117 73.586H75.7423C76.0307 73.586 76.3073 73.4715 76.5113 73.2675C76.7152 73.0636 76.8298 72.787 76.8298 72.4985C76.8298 72.2101 76.7152 71.9335 76.5113 71.7296C76.3073 71.5256 76.0307 71.411 75.7423 71.411H64.4801L67.4599 60.0343H70.6586C70.947 60.0343 71.2236 59.9198 71.4276 59.7158C71.6315 59.5119 71.7461 59.2353 71.7461 58.9468C71.7461 58.6584 71.6315 58.3818 71.4276 58.1779C71.2236 57.9739 70.947 57.8593 70.6586 57.8593H68.0297L70.6499 47.8775L82.898 64.6366H77.4402C77.1518 64.6366 76.8752 64.7512 76.6713 64.9552C76.4673 65.1591 76.3527 65.4357 76.3527 65.7241C76.3527 66.0126 76.4673 66.2892 76.6713 66.4931C76.8752 66.6971 77.1518 66.8116 77.4402 66.8116H84.4887L92.803 78.1883H87.6047C87.3163 78.1883 87.0397 78.3029 86.8358 78.5069C86.6318 78.7108 86.5172 78.9874 86.5172 79.2758C86.5172 79.5643 86.6318 79.8409 86.8358 80.0448C87.0397 80.2488 87.3163 80.3633 87.6047 80.3633H94.3922L102.706 91.74H84.2146C83.9262 91.74 83.6496 91.8546 83.4457 92.0586C83.2417 92.2625 83.1271 92.5391 83.1271 92.8275C83.1271 93.116 83.2417 93.3926 83.4457 93.5965C83.6496 93.8005 83.9262 93.915 84.2146 93.915H104.294L107.657 98.5159L75.142 98.5145Z" fill="#E8DAD6"/>
<path d="M53.7242 91.7401H43.5611C43.2727 91.7401 42.9961 91.8546 42.7922 92.0586C42.5882 92.2625 42.4736 92.5391 42.4736 92.8275C42.4736 93.116 42.5882 93.3926 42.7922 93.5965C42.9961 93.8005 43.2727 93.915 43.5611 93.915H53.7242C54.0126 93.915 54.2892 93.8005 54.4932 93.5965C54.6971 93.3926 54.8117 93.116 54.8117 92.8275C54.8117 92.5391 54.6971 92.2625 54.4932 92.0586C54.2892 91.8546 54.0126 91.7401 53.7242 91.7401Z" fill="#E8DAD6"/>
</svg>
